# xmcd
#
# Track frame offsets:
#	182
#	11547
#	25565
#	49387
#	61132
#	74270
#	84912
#	95775
#	109842
#	121540
#	134487
#	146362
#	158540
#	171057
#	183682
#	196567
#	210732
#	227947
#	244707
#	264345
#
# Disc length: 3733
#
# Revision: 4
# Processed by: cddbd v1.5.1PL0 Copyright (c) Steve Scherf et al.
# Submitted via: ExactAudioCopy v0.90b4
# Normalized: r3:DSETVAR1
#
DISCID=070e9314
DTITLE=Various Artist - The Very Best Of Blues Brother Soul Sister [CD1]
DYEAR=1995
DGENRE=Blues
TTITLE0=John Lee Hooker - Boom Boom
TTITLE1=Etta James - I Just Want To Make Love To You
TTITLE2=Muddy Waters - Mannish Boy
TTITLE3=Erma Franklin - (Take A Little ) Piece Of My Heart
TTITLE4=Percy Sledge - When A Man Loves  A Woman
TTITLE5=Arthur Conley - Sweet Soul Music
TTITLE6=Aretha Franklin - Respect
TTITLE7=Howlin' Wolf - Smokestack Lightnin'
TTITLE8=Wilson Pickett - In The Midnight Hour
TTITLE9=Fontella Bass - Rescue Me
TTITLE10=Sam And Dave - Soul Man
TTITLE11=Judy Clay and William Bell - Private Number
TTITLE12=Albert King - Born Under A Bad Sign
TTITLE13=James Brown - It's A Man's Man's Man's World
TTITLE14=Mary Wells - My Guy
TTITLE15=Aaron Neville - Tell It Like It Is
TTITLE16=Fleetwood Mac - Need Your Love So Bad
TTITLE17=Gladys Knight and The Pips - Midnight Train To Georgia
TTITLE18=Little Milton - Stormy Monday
TTITLE19=Lorraine Ellison - Stay With Me (Baby)
EXTD=
EXTT0=
EXTT1=
EXTT2=
EXTT3=
EXTT4=
EXTT5=
EXTT6=
EXTT7=
EXTT8=
EXTT9=
EXTT10=
EXTT11=
EXTT12=
EXTT13=
EXTT14=
EXTT15=
EXTT16=
EXTT17=
EXTT18=
EXTT19=
PLAYORDER=
